<svg width="26" height="26" viewBox="0 0 26 26" fill="none" xmlns="http://www.w3.org/2000/svg">
<path d="M5.69785 1.54932C3.39975 1.54932 1.54932 3.39974 1.54932 5.69784V20.1208C1.54932 22.4189 3.39975 24.2693 5.69785 24.2693H13.515V15.3872H11.1663V12.1894H13.515V9.45729C13.515 7.31082 14.9027 5.34 18.0994 5.34C19.3937 5.34 20.3508 5.46426 20.3508 5.46426L20.2756 8.45053C20.2756 8.45053 19.2995 8.4413 18.2343 8.4413C17.0815 8.4413 16.8967 8.97245 16.8967 9.85421V12.1894H20.3672L20.2159 15.3872H16.8967V24.2693H20.1208C22.4189 24.2693 24.2693 22.4189 24.2693 20.1208V5.69787C24.2693 3.39977 22.4189 1.54934 20.1208 1.54934H5.69783L5.69785 1.54932Z" fill="#646464"/>
</svg>
