<svg width="26" height="26" viewBox="0 0 26 26" fill="none" xmlns="http://www.w3.org/2000/svg">
<path fill-rule="evenodd" clip-rule="evenodd" d="M8.2121 1.14717C9.47396 1.08908 9.87629 1.07617 13.0907 1.07617C16.305 1.07617 16.7074 1.09016 17.9681 1.14717C19.2289 1.20419 20.0895 1.40535 20.8426 1.69688C21.6311 1.99487 22.3465 2.46067 22.9381 3.0631C23.5406 3.65369 24.0053 4.36799 24.3022 5.1576C24.5948 5.91063 24.7949 6.77123 24.853 8.02987C24.9111 9.29388 24.924 9.69622 24.924 12.9095C24.924 16.1239 24.91 16.5262 24.853 17.7881C24.796 19.0467 24.5948 19.9073 24.3022 20.6603C24.0053 21.45 23.5398 22.1655 22.9381 22.757C22.3465 23.3594 21.6311 23.8241 20.8426 24.121C20.0895 24.4137 19.2289 24.6137 17.9703 24.6718C16.7074 24.7299 16.305 24.7428 13.0907 24.7428C9.87629 24.7428 9.47396 24.7289 8.2121 24.6718C6.95346 24.6148 6.09285 24.4137 5.33982 24.121C4.55013 23.8241 3.83465 23.3586 3.24317 22.757C2.64116 22.166 2.17528 21.4509 1.87804 20.6614C1.58651 19.9084 1.38642 19.0478 1.32832 17.7891C1.27023 16.5251 1.25732 16.1228 1.25732 12.9095C1.25732 9.69514 1.27131 9.29281 1.32832 8.03202C1.38534 6.77123 1.58651 5.91063 1.87804 5.1576C2.17572 4.36808 2.64195 3.65295 3.24425 3.06202C3.83488 2.46014 4.54965 1.99427 5.33875 1.69688C6.09178 1.40535 6.95238 1.20526 8.21102 1.14717H8.2121ZM17.8724 3.27717C16.6245 3.22016 16.2502 3.20832 13.0907 3.20832C9.93116 3.20832 9.55679 3.22016 8.30891 3.27717C7.15463 3.32988 6.52854 3.52244 6.11114 3.68488C5.55928 3.90004 5.16448 4.15499 4.75031 4.56916C4.35771 4.95111 4.05556 5.41608 3.86604 5.92999C3.7036 6.34738 3.51104 6.97347 3.45832 8.12776C3.40131 9.37564 3.38948 9.75 3.38948 12.9095C3.38948 16.069 3.40131 16.4434 3.45832 17.6912C3.51104 18.8455 3.7036 19.4716 3.86604 19.889C4.05537 20.4022 4.35766 20.868 4.75031 21.2499C5.1322 21.6425 5.59801 21.9448 6.11114 22.1341C6.52854 22.2966 7.15463 22.4891 8.30891 22.5418C9.55679 22.5989 9.93008 22.6107 13.0907 22.6107C16.2512 22.6107 16.6245 22.5989 17.8724 22.5418C19.0267 22.4891 19.6528 22.2966 20.0702 22.1341C20.622 21.919 21.0168 21.664 21.431 21.2499C21.8237 20.868 22.1259 20.4022 22.3153 19.889C22.4777 19.4716 22.6703 18.8455 22.723 17.6912C22.78 16.4434 22.7918 16.069 22.7918 12.9095C22.7918 9.75 22.78 9.37564 22.723 8.12776C22.6703 6.97347 22.4777 6.34738 22.3153 5.92999C22.1001 5.37813 21.8452 4.98332 21.431 4.56916C21.049 4.17658 20.5841 3.87444 20.0702 3.68488C19.6528 3.52244 19.0267 3.32988 17.8724 3.27717ZM11.5792 16.5574C12.4233 16.9088 13.3632 16.9562 14.2384 16.6916C15.1136 16.4269 15.8698 15.8667 16.3778 15.1065C16.8857 14.3463 17.114 13.4333 17.0237 12.5234C16.9333 11.6136 16.5299 10.7633 15.8822 10.1179C15.4694 9.70534 14.9702 9.38942 14.4207 9.19292C13.8711 8.99642 13.2848 8.92421 12.7039 8.9815C12.1231 9.03879 11.5622 9.22415 11.0616 9.52424C10.561 9.82432 10.1331 10.2317 9.80885 10.717C9.48457 11.2022 9.27192 11.7534 9.18621 12.3307C9.1005 12.908 9.14387 13.4972 9.31318 14.0557C9.48249 14.6143 9.77354 15.1284 10.1654 15.5609C10.5572 15.9935 11.0401 16.3338 11.5792 16.5574ZM8.78978 8.60863C9.35458 8.04383 10.0251 7.5958 10.763 7.29014C11.501 6.98447 12.2919 6.82714 13.0907 6.82714C13.8894 6.82714 14.6803 6.98447 15.4183 7.29014C16.1562 7.5958 16.8267 8.04383 17.3915 8.60863C17.9563 9.17342 18.4044 9.84394 18.71 10.5819C19.0157 11.3198 19.173 12.1108 19.173 12.9095C19.173 13.7083 19.0157 14.4992 18.71 15.2371C18.4044 15.9751 17.9563 16.6456 17.3915 17.2104C16.2509 18.351 14.7038 18.9919 13.0907 18.9919C11.4775 18.9919 9.93044 18.351 8.78978 17.2104C7.64911 16.0697 7.0083 14.5226 7.0083 12.9095C7.0083 11.2964 7.64911 9.74929 8.78978 8.60863ZM20.522 7.73296C20.662 7.60093 20.774 7.44216 20.8515 7.26605C20.929 7.08994 20.9704 6.90007 20.9732 6.70769C20.976 6.5153 20.9402 6.32431 20.8678 6.14601C20.7955 5.96772 20.6881 5.80575 20.5521 5.6697C20.416 5.53365 20.254 5.42627 20.0758 5.35394C19.8975 5.28161 19.7065 5.24578 19.5141 5.24859C19.3217 5.25139 19.1318 5.29277 18.9557 5.37027C18.7796 5.44777 18.6208 5.55982 18.4888 5.69978C18.232 5.97198 18.0915 6.33353 18.0969 6.70769C18.1024 7.08184 18.2534 7.43915 18.518 7.70374C18.7826 7.96834 19.1399 8.1194 19.5141 8.12486C19.8882 8.13031 20.2498 7.98973 20.522 7.73296Z" fill="#646464"/>
</svg>
