<svg width="26" height="26" viewBox="0 0 26 26" fill="none" xmlns="http://www.w3.org/2000/svg">
<g clip-path="url(#clip0_95_7609)">
<path d="M25.5258 5.31145C24.6275 5.70948 23.6625 5.97842 22.6481 6.09998C23.6948 5.47366 24.4779 4.48792 24.8513 3.32667C23.8679 3.9108 22.7916 4.32196 21.6692 4.54228C20.9144 3.73639 19.9147 3.20224 18.8252 3.02274C17.7358 2.84325 16.6175 3.02846 15.6441 3.54963C14.6707 4.07079 13.8966 4.89874 13.4419 5.90495C12.9873 6.91115 12.8776 8.0393 13.1298 9.11425C11.1372 9.0142 9.18783 8.49628 7.40831 7.5941C5.62879 6.69192 4.05885 5.42565 2.80038 3.87746C2.37008 4.61973 2.12265 5.48034 2.12265 6.39689C2.12217 7.22199 2.32536 8.03445 2.71419 8.76219C3.10302 9.48993 3.66546 10.1104 4.35162 10.5687C3.55586 10.5434 2.77765 10.3283 2.08178 9.94151V10.0061C2.0817 11.1633 2.48199 12.2849 3.21475 13.1806C3.9475 14.0763 4.96757 14.6909 6.10188 14.9201C5.36368 15.1199 4.58973 15.1493 3.83849 15.0062C4.15852 16.0019 4.78192 16.8726 5.62141 17.4965C6.4609 18.1203 7.47446 18.466 8.52019 18.4852C6.74501 19.8787 4.55267 20.6346 2.29585 20.6313C1.89608 20.6314 1.49665 20.6081 1.09961 20.5614C3.39041 22.0343 6.05707 22.816 8.78052 22.8129C17.9998 22.8129 23.0397 15.1772 23.0397 8.55485C23.0397 8.3397 23.0343 8.1224 23.0246 7.90725C24.005 7.1983 24.8512 6.32039 25.5236 5.31467L25.5258 5.31145Z" fill="#646464"/>
</g>
<defs>
<clipPath id="clip0_95_7609">
<rect width="25.8182" height="25.8182" fill="white" transform="translate(0.0917969)"/>
</clipPath>
</defs>
</svg>
