<svg width="20" height="20" viewBox="0 0 20 20" fill="none" xmlns="http://www.w3.org/2000/svg">
<path d="M11.7667 12.8333L15.5917 9.00829C15.7469 8.85216 15.834 8.64095 15.834 8.42079C15.834 8.20064 15.7469 7.98943 15.5917 7.83329C15.5142 7.75518 15.422 7.69319 15.3205 7.65088C15.2189 7.60857 15.11 7.58679 15 7.58679C14.89 7.58679 14.7811 7.60857 14.6795 7.65088C14.578 7.69319 14.4858 7.75518 14.4083 7.83329L10.5917 11.6666C10.5142 11.7447 10.422 11.8067 10.3205 11.849C10.2189 11.8913 10.11 11.9131 9.99999 11.9131C9.88998 11.9131 9.78105 11.8913 9.67951 11.849C9.57796 11.8067 9.48579 11.7447 9.40832 11.6666L5.59165 7.83329C5.43583 7.67637 5.22407 7.58777 5.00293 7.58699C4.78179 7.58621 4.5694 7.67331 4.41248 7.82912C4.25556 7.98494 4.16697 8.19671 4.16619 8.41784C4.1654 8.63898 4.2525 8.85137 4.40832 9.00829L8.23332 12.8333C8.70207 13.3015 9.33748 13.5644 9.99999 13.5644C10.6625 13.5644 11.2979 13.3015 11.7667 12.8333Z" fill="#20BF6B"/>
</svg>
