<svg width="40" height="40" viewBox="0 0 40 40" fill="none" xmlns="http://www.w3.org/2000/svg">
<g clip-path="url(#clip0_2_209)">
<path d="M29.6032 40.0001C16.0515 40.4584 -8.36182 16.2417 2.97318 3.11173L4.88985 1.44506C5.86005 0.507169 7.16054 -0.0109777 8.50989 0.00274666C9.85924 0.016471 11.1489 0.560963 12.0999 1.51839C12.1512 1.57073 12.1991 1.62641 12.2432 1.68506L15.2432 5.5834C16.1549 6.54812 16.6615 7.82603 16.6584 9.15339C16.6553 10.4808 16.1427 11.7563 15.2265 12.7167L13.2965 15.1434C14.365 17.7385 15.9355 20.0971 17.9179 22.0837C19.9002 24.0703 22.2554 25.6459 24.8482 26.7201L27.2882 24.7784C28.2611 23.8848 29.5335 23.3882 30.8546 23.3863C32.1756 23.3845 33.4494 23.8776 34.4249 24.7684L38.3249 27.7684C38.3831 27.8124 38.4388 27.8597 38.4915 27.9101C39.4533 28.8807 39.9929 30.1919 39.9929 31.5584C39.9929 32.9249 39.4533 34.2361 38.4915 35.2067L36.9732 36.9567C36.0101 37.9304 34.8618 38.7012 33.596 39.2239C32.3302 39.7466 30.9726 40.0105 29.6032 40.0001ZM8.45152 3.3334C8.212 3.33321 7.9748 3.38021 7.75346 3.47173C7.53212 3.56324 7.33097 3.69746 7.16152 3.86673L5.24318 5.5334C-4.16682 16.8467 24.6282 44.0384 34.5332 34.6801L36.0532 32.9284C36.2339 32.7676 36.3809 32.5726 36.4859 32.3547C36.5909 32.1368 36.6518 31.9003 36.6649 31.6587C36.6781 31.4172 36.6433 31.1755 36.5627 30.9474C36.482 30.7194 36.357 30.5096 36.1949 30.3301L32.3165 27.3517C32.2571 27.308 32.2014 27.2595 32.1499 27.2067C31.8021 26.8754 31.3402 26.6906 30.8599 26.6906C30.3795 26.6906 29.9176 26.8754 29.5699 27.2067C29.5256 27.2516 29.4789 27.2938 29.4299 27.3334L26.1665 29.9334C25.94 30.1137 25.6704 30.2319 25.3843 30.2763C25.0982 30.3208 24.8054 30.2899 24.5349 30.1867C21.1751 28.9351 18.1235 26.976 15.587 24.442C13.0505 21.9081 11.0882 18.8586 9.83318 15.5001C9.72208 15.2257 9.68605 14.9267 9.72882 14.6337C9.77159 14.3408 9.8916 14.0646 10.0765 13.8334L12.6665 10.5734C12.705 10.524 12.7468 10.4772 12.7915 10.4334C13.132 10.09 13.323 9.62609 13.323 9.14256C13.323 8.65904 13.132 8.19509 12.7915 7.85173C12.7396 7.7999 12.6917 7.74418 12.6482 7.68506L9.67652 3.81173C9.34074 3.50834 8.90405 3.3408 8.45152 3.34173V3.3334ZM37.6065 20.9601C45.9232 8.7184 31.2732 -5.91661 19.0449 2.39839C18.8604 2.52152 18.7025 2.68019 18.5801 2.86514C18.4578 3.05008 18.3737 3.25757 18.3325 3.47546C18.2914 3.69335 18.2942 3.91724 18.3407 4.13404C18.3872 4.35084 18.4765 4.55619 18.6034 4.73804C18.7302 4.9199 18.8921 5.07462 19.0795 5.19313C19.2669 5.31164 19.476 5.39157 19.6947 5.42824C19.9134 5.4649 20.1372 5.45756 20.353 5.40665C20.5688 5.35573 20.7723 5.26227 20.9515 5.13173C30.0749 -1.13327 41.1349 9.9384 34.8732 19.0551C34.7398 19.2341 34.6438 19.4382 34.5908 19.6551C34.5378 19.872 34.529 20.0973 34.5648 20.3177C34.6006 20.5381 34.6803 20.7491 34.7992 20.9381C34.9181 21.1271 35.0737 21.2902 35.2569 21.4179C35.4401 21.5456 35.6471 21.6351 35.8655 21.6812C36.084 21.7274 36.3095 21.7292 36.5287 21.6864C36.7478 21.6437 36.9562 21.5574 37.1413 21.4327C37.3265 21.3079 37.4847 21.1472 37.6065 20.9601ZM31.1765 17.8517C31.489 17.5392 31.6645 17.1153 31.6645 16.6734C31.6645 16.2315 31.489 15.8076 31.1765 15.4951L28.3332 12.6501V8.3334C28.3332 7.89137 28.1576 7.46745 27.845 7.15489C27.5325 6.84233 27.1085 6.66673 26.6665 6.66673C26.2245 6.66673 25.8006 6.84233 25.488 7.15489C25.1754 7.46745 24.9999 7.89137 24.9999 8.3334V13.3334C24.9999 13.7754 25.1756 14.1992 25.4882 14.5117L28.8215 17.8451C29.1341 18.1575 29.5579 18.333 29.9999 18.333C30.4418 18.333 30.8656 18.1575 31.1782 17.8451L31.1765 17.8517Z" fill="#CA00DC"/>
</g>
<defs>
<clipPath id="clip0_2_209">
<rect width="40" height="40" fill="white"/>
</clipPath>
</defs>
</svg>
