<svg width="40" height="40" viewBox="0 0 40 40" fill="none" xmlns="http://www.w3.org/2000/svg">
<g clip-path="url(#clip0_2_215)">
<path d="M31.6668 14.04V11.6667C31.6668 8.57247 30.4377 5.60501 28.2497 3.41709C26.0618 1.22916 23.0944 0 20.0002 0C16.906 0 13.9385 1.22916 11.7506 3.41709C9.56266 5.60501 8.3335 8.57247 8.3335 11.6667V14.04C6.8491 14.6878 5.58565 15.7542 4.69766 17.1087C3.80967 18.4632 3.33563 20.0471 3.3335 21.6667V31.6667C3.33614 33.876 4.21497 35.9941 5.7772 37.5563C7.33943 39.1185 9.45751 39.9973 11.6668 40H28.3335C30.5428 39.9973 32.6609 39.1185 34.2231 37.5563C35.7854 35.9941 36.6642 33.876 36.6668 31.6667V21.6667C36.6647 20.0471 36.1907 18.4632 35.3027 17.1087C34.4147 15.7542 33.1512 14.6878 31.6668 14.04ZM11.6668 11.6667C11.6668 9.45653 12.5448 7.33691 14.1076 5.77411C15.6704 4.21131 17.79 3.33333 20.0002 3.33333C22.2103 3.33333 24.3299 4.21131 25.8927 5.77411C27.4555 7.33691 28.3335 9.45653 28.3335 11.6667V13.3333H11.6668V11.6667ZM33.3335 31.6667C33.3335 32.9927 32.8067 34.2645 31.869 35.2022C30.9314 36.1399 29.6596 36.6667 28.3335 36.6667H11.6668C10.3407 36.6667 9.06898 36.1399 8.1313 35.2022C7.19361 34.2645 6.66683 32.9927 6.66683 31.6667V21.6667C6.66683 20.3406 7.19361 19.0688 8.1313 18.1311C9.06898 17.1934 10.3407 16.6667 11.6668 16.6667H28.3335C29.6596 16.6667 30.9314 17.1934 31.869 18.1311C32.8067 19.0688 33.3335 20.3406 33.3335 21.6667V31.6667Z" fill="#FF9901"/>
<path d="M20.0002 23.3333C19.5581 23.3333 19.1342 23.5088 18.8217 23.8214C18.5091 24.134 18.3335 24.5579 18.3335 24.9999V28.3332C18.3335 28.7753 18.5091 29.1992 18.8217 29.5118C19.1342 29.8243 19.5581 29.9999 20.0002 29.9999C20.4422 29.9999 20.8661 29.8243 21.1787 29.5118C21.4912 29.1992 21.6668 28.7753 21.6668 28.3332V24.9999C21.6668 24.5579 21.4912 24.134 21.1787 23.8214C20.8661 23.5088 20.4422 23.3333 20.0002 23.3333Z" fill="#FF9901"/>
</g>
<defs>
<clipPath id="clip0_2_215">
<rect width="40" height="40" fill="white"/>
</clipPath>
</defs>
</svg>
