<svg width="40" height="40" viewBox="0 0 40 40" fill="none" xmlns="http://www.w3.org/2000/svg">
<g clip-path="url(#clip0_2_203)">
<path d="M31.6667 33.3334H8.33333C6.12401 33.3308 4.00593 32.4519 2.4437 30.8897C0.88147 29.3275 0.00264643 27.2094 0 25.0001L0 15.0001C0.00264643 12.7908 0.88147 10.6727 2.4437 9.11045C4.00593 7.54822 6.12401 6.66939 8.33333 6.66675H31.6667C33.876 6.66939 35.9941 7.54822 37.5563 9.11045C39.1185 10.6727 39.9973 12.7908 40 15.0001V25.0001C39.9973 27.2094 39.1185 29.3275 37.5563 30.8897C35.9941 32.4519 33.876 33.3308 31.6667 33.3334ZM8.33333 10.0001C7.00725 10.0001 5.73548 10.5269 4.7978 11.4645C3.86012 12.4022 3.33333 13.674 3.33333 15.0001V25.0001C3.33333 26.3262 3.86012 27.5979 4.7978 28.5356C5.73548 29.4733 7.00725 30.0001 8.33333 30.0001H31.6667C32.9927 30.0001 34.2645 29.4733 35.2022 28.5356C36.1399 27.5979 36.6667 26.3262 36.6667 25.0001V15.0001C36.6667 13.674 36.1399 12.4022 35.2022 11.4645C34.2645 10.5269 32.9927 10.0001 31.6667 10.0001H8.33333ZM20 26.6667C18.6815 26.6667 17.3925 26.2757 16.2962 25.5432C15.1999 24.8107 14.3454 23.7695 13.8408 22.5513C13.3362 21.3331 13.2042 19.9927 13.4614 18.6995C13.7187 17.4063 14.3536 16.2184 15.286 15.286C16.2183 14.3537 17.4062 13.7187 18.6994 13.4615C19.9926 13.2043 21.333 13.3363 22.5512 13.8409C23.7694 14.3455 24.8106 15.1999 25.5431 16.2963C26.2757 17.3926 26.6667 18.6815 26.6667 20.0001C26.6667 21.7682 25.9643 23.4639 24.714 24.7141C23.4638 25.9644 21.7681 26.6667 20 26.6667ZM20 16.6667C19.3407 16.6667 18.6963 16.8622 18.1481 17.2285C17.5999 17.5948 17.1727 18.1154 16.9204 18.7245C16.6681 19.3336 16.6021 20.0038 16.7307 20.6504C16.8593 21.297 17.1768 21.8909 17.643 22.3571C18.1091 22.8233 18.7031 23.1407 19.3497 23.2694C19.9963 23.398 20.6665 23.332 21.2756 23.0797C21.8847 22.8274 22.4053 22.4001 22.7716 21.852C23.1378 21.3038 23.3333 20.6593 23.3333 20.0001C23.3333 19.116 22.9821 18.2682 22.357 17.6431C21.7319 17.0179 20.8841 16.6667 20 16.6667ZM8.33333 13.3334C8.0037 13.3334 7.68146 13.4312 7.40738 13.6143C7.1333 13.7974 6.91968 14.0577 6.79353 14.3623C6.66739 14.6668 6.63438 15.0019 6.69869 15.3252C6.763 15.6485 6.92173 15.9455 7.15482 16.1786C7.38791 16.4117 7.68488 16.5704 8.00818 16.6347C8.33148 16.699 8.66659 16.666 8.97114 16.5399C9.27568 16.4137 9.53598 16.2001 9.71911 15.926C9.90225 15.6519 10 15.3297 10 15.0001C10 14.5581 9.8244 14.1341 9.51184 13.8216C9.19928 13.509 8.77536 13.3334 8.33333 13.3334ZM30 15.0001C30 15.3297 30.0977 15.6519 30.2809 15.926C30.464 16.2001 30.7243 16.4137 31.0289 16.5399C31.3334 16.666 31.6685 16.699 31.9918 16.6347C32.3151 16.5704 32.6121 16.4117 32.8452 16.1786C33.0783 15.9455 33.237 15.6485 33.3013 15.3252C33.3656 15.0019 33.3326 14.6668 33.2065 14.3623C33.0803 14.0577 32.8667 13.7974 32.5926 13.6143C32.3185 13.4312 31.9963 13.3334 31.6667 13.3334C31.2246 13.3334 30.8007 13.509 30.4881 13.8216C30.1756 14.1341 30 14.5581 30 15.0001ZM8.33333 23.3334C8.0037 23.3334 7.68146 23.4312 7.40738 23.6143C7.1333 23.7974 6.91968 24.0577 6.79353 24.3623C6.66739 24.6668 6.63438 25.0019 6.69869 25.3252C6.763 25.6485 6.92173 25.9455 7.15482 26.1786C7.38791 26.4117 7.68488 26.5704 8.00818 26.6347C8.33148 26.699 8.66659 26.666 8.97114 26.5399C9.27568 26.4137 9.53598 26.2001 9.71911 25.926C9.90225 25.6519 10 25.3297 10 25.0001C10 24.558 9.8244 24.1341 9.51184 23.8216C9.19928 23.509 8.77536 23.3334 8.33333 23.3334ZM30 25.0001C30 25.3297 30.0977 25.6519 30.2809 25.926C30.464 26.2001 30.7243 26.4137 31.0289 26.5399C31.3334 26.666 31.6685 26.699 31.9918 26.6347C32.3151 26.5704 32.6121 26.4117 32.8452 26.1786C33.0783 25.9455 33.237 25.6485 33.3013 25.3252C33.3656 25.0019 33.3326 24.6668 33.2065 24.3623C33.0803 24.0577 32.8667 23.7974 32.5926 23.6143C32.3185 23.4312 31.9963 23.3334 31.6667 23.3334C31.2246 23.3334 30.8007 23.509 30.4881 23.8216C30.1756 24.1341 30 24.558 30 25.0001Z" fill="#0169FF"/>
</g>
<defs>
<clipPath id="clip0_2_203">
<rect width="40" height="40" fill="white"/>
</clipPath>
</defs>
</svg>
