<svg width="40" height="40" viewBox="0 0 40 40" fill="none" xmlns="http://www.w3.org/2000/svg">
<g clip-path="url(#clip0_2_197)">
<path d="M35 26.6666V19.9999C34.9994 17.7608 34.4966 15.5503 33.5286 13.5312C32.5606 11.5121 31.1521 9.73585 29.4067 8.33324H33.795C34.1644 8.9626 34.7309 9.45265 35.4068 9.72755C36.0828 10.0024 36.8306 10.0468 37.5343 9.85389C38.2381 9.66092 38.8586 9.24136 39.2999 8.66014C39.7411 8.07892 39.9785 7.36846 39.9752 6.63873C39.9719 5.909 39.7282 5.20071 39.2817 4.62348C38.8352 4.04626 38.211 3.63229 37.5055 3.44567C36.8 3.25905 36.0527 3.31019 35.3792 3.59115C34.7058 3.87212 34.1437 4.36725 33.78 4.99991H26.43C26.0662 3.5706 25.2366 2.30324 24.0721 1.39806C22.9077 0.492874 21.4749 0.00146484 20 0.00146484C18.5251 0.00146484 17.0923 0.492874 15.9279 1.39806C14.7634 2.30324 13.9338 3.5706 13.57 4.99991H6.205C5.83564 4.37055 5.26913 3.8805 4.59315 3.6056C3.91717 3.33071 3.16943 3.2863 2.46567 3.47927C1.76191 3.67223 1.14138 4.09179 0.700133 4.67301C0.258888 5.25423 0.0215376 5.96469 0.0248213 6.69442C0.0281051 7.42415 0.27184 8.13245 0.718298 8.70967C1.16476 9.2869 1.78904 9.70086 2.49451 9.88748C3.19997 10.0741 3.94729 10.023 4.62076 9.742C5.29424 9.46103 5.85632 8.9659 6.22 8.33324H10.5933C8.84793 9.73585 7.43936 11.5121 6.47135 13.5312C5.50335 15.5503 5.00055 17.7608 5 19.9999V26.6666C3.67392 26.6666 2.40215 27.1934 1.46447 28.1311C0.526784 29.0687 0 30.3405 0 31.6666L0 34.9999C0 36.326 0.526784 37.5978 1.46447 38.5355C2.40215 39.4731 3.67392 39.9999 5 39.9999H8.33333C9.65941 39.9999 10.9312 39.4731 11.8689 38.5355C12.8065 37.5978 13.3333 36.326 13.3333 34.9999V31.6666C13.3333 30.3405 12.8065 29.0687 11.8689 28.1311C10.9312 27.1934 9.65941 26.6666 8.33333 26.6666V19.9999C8.33605 17.9478 8.88001 15.9326 9.91034 14.1579C10.9407 12.3831 12.4209 10.9115 14.2017 9.89158C14.7699 10.9332 15.6082 11.8025 16.6285 12.4082C17.6488 13.0138 18.8135 13.3335 20 13.3335C21.1865 13.3335 22.3512 13.0138 23.3715 12.4082C24.3918 11.8025 25.2301 10.9332 25.7983 9.89158C27.5791 10.9115 29.0593 12.3831 30.0897 14.1579C31.12 15.9326 31.6639 17.9478 31.6667 19.9999V26.6666C30.3406 26.6666 29.0688 27.1934 28.1311 28.1311C27.1934 29.0687 26.6667 30.3405 26.6667 31.6666V34.9999C26.6667 36.326 27.1934 37.5978 28.1311 38.5355C29.0688 39.4731 30.3406 39.9999 31.6667 39.9999H35C36.3261 39.9999 37.5978 39.4731 38.5355 38.5355C39.4732 37.5978 40 36.326 40 34.9999V31.6666C40 30.3405 39.4732 29.0687 38.5355 28.1311C37.5978 27.1934 36.3261 26.6666 35 26.6666ZM10 31.6666V34.9999C10 35.442 9.8244 35.8659 9.51184 36.1784C9.19928 36.491 8.77536 36.6666 8.33333 36.6666H5C4.55797 36.6666 4.13405 36.491 3.82149 36.1784C3.50893 35.8659 3.33333 35.442 3.33333 34.9999V31.6666C3.33333 31.2246 3.50893 30.8006 3.82149 30.4881C4.13405 30.1755 4.55797 29.9999 5 29.9999H8.33333C8.77536 29.9999 9.19928 30.1755 9.51184 30.4881C9.8244 30.8006 10 31.2246 10 31.6666ZM20 9.99991C19.3407 9.99991 18.6963 9.80441 18.1481 9.43814C17.5999 9.07187 17.1727 8.55128 16.9204 7.94219C16.6681 7.3331 16.6021 6.66288 16.7307 6.01627C16.8593 5.36967 17.1768 4.77573 17.643 4.30955C18.1091 3.84338 18.7031 3.52591 19.3497 3.39729C19.9963 3.26867 20.6665 3.33468 21.2756 3.58698C21.8847 3.83927 22.4053 4.26651 22.7716 4.81467C23.1378 5.36284 23.3333 6.0073 23.3333 6.66658C23.3333 7.55063 22.9821 8.39848 22.357 9.0236C21.7319 9.64872 20.8841 9.99991 20 9.99991ZM36.6667 34.9999C36.6667 35.442 36.4911 35.8659 36.1785 36.1784C35.8659 36.491 35.442 36.6666 35 36.6666H31.6667C31.2246 36.6666 30.8007 36.491 30.4881 36.1784C30.1756 35.8659 30 35.442 30 34.9999V31.6666C30 31.2246 30.1756 30.8006 30.4881 30.4881C30.8007 30.1755 31.2246 29.9999 31.6667 29.9999H35C35.442 29.9999 35.8659 30.1755 36.1785 30.4881C36.4911 30.8006 36.6667 31.2246 36.6667 31.6666V34.9999Z" fill="#20BF6B"/>
</g>
<defs>
<clipPath id="clip0_2_197">
<rect width="40" height="40" fill="white"/>
</clipPath>
</defs>
</svg>
